<svg width="36" height="30" viewBox="0 0 36 30" fill="none" xmlns="http://www.w3.org/2000/svg">
<path d="M31.5 15.636V13.5C31.5 9.91958 30.0777 6.4858 27.5459 3.95406C25.0142 1.42232 21.5804 0 18 0C14.4196 0 10.9858 1.42232 8.45404 3.95406C5.9223 6.4858 4.49999 9.91958 4.49999 13.5V15.636C2.92673 16.3287 1.63919 17.5409 0.852919 19.0696C0.0666509 20.5983 -0.170622 22.3506 0.180823 24.0334C0.532268 25.7161 1.4511 27.227 2.78349 28.3132C4.11589 29.3994 5.78097 29.9949 7.49999 30H10.5V15H7.49999V13.5C7.49999 10.7152 8.60623 8.04451 10.5754 6.07538C12.5445 4.10625 15.2152 3 18 3C20.7848 3 23.4555 4.10625 25.4246 6.07538C27.3937 8.04451 28.5 10.7152 28.5 13.5V15H25.5V27H19.5V30H28.5C30.219 29.9949 31.8841 29.3994 33.2165 28.3132C34.5489 27.227 35.4677 25.7161 35.8191 24.0334C36.1706 22.3506 35.9333 20.5983 35.1471 19.0696C34.3608 17.5409 33.0732 16.3287 31.5 15.636ZM7.49999 27C6.30651 27 5.16192 26.5259 4.31801 25.682C3.47409 24.8381 2.99999 23.6935 2.99999 22.5C2.99999 21.3065 3.47409 20.1619 4.31801 19.318C5.16192 18.4741 6.30651 18 7.49999 18V27ZM28.5 27V18C29.6935 18 30.8381 18.4741 31.682 19.318C32.5259 20.1619 33 21.3065 33 22.5C33 23.6935 32.5259 24.8381 31.682 25.682C30.8381 26.5259 29.6935 27 28.5 27Z" fill="#253D4E"/>
</svg>
